<svg width="350" height="349" viewBox="0 0 350 349" fill="none" xmlns="http://www.w3.org/2000/svg">
<path d="M187.625 138.779C186.349 137.511 184.592 136.782 182.787 136.782C180.99 136.782 179.224 137.511 177.953 138.779C176.682 140.046 175.951 141.806 175.951 143.598C175.951 145.39 176.682 147.15 177.953 148.418C179.224 149.685 180.99 150.415 182.787 150.415C184.592 150.415 186.349 149.685 187.625 148.418C188.896 147.15 189.623 145.398 189.623 143.598C189.623 141.806 188.896 140.046 187.625 138.779Z" fill="white"/>
<path d="M206.718 126.557C208.518 126.557 210.28 125.828 211.551 124.56C212.822 123.293 213.548 121.533 213.548 119.741C213.548 117.949 212.822 116.189 211.551 114.921C210.28 113.654 208.518 112.924 206.718 112.924C204.915 112.924 203.15 113.654 201.879 114.921C200.608 116.189 199.876 117.949 199.876 119.741C199.876 121.533 200.608 123.293 201.879 124.56C203.15 125.828 204.915 126.557 206.718 126.557Z" fill="white"/>
<path d="M329.492 167.682H310.418L343.995 134.202C347.866 130.338 350 125.202 350 119.741C350 114.28 347.866 109.143 343.995 105.282L313.54 74.9145C310.872 72.2545 306.544 72.2545 303.873 74.9145C300.002 78.778 294.851 80.9055 289.374 80.9055C283.894 80.9055 278.746 78.778 274.871 74.9145C270.997 71.0536 268.866 65.9173 268.866 60.4561C268.866 54.9923 271 49.8587 274.871 45.9951C276.153 44.717 276.874 42.9836 276.874 41.1757C276.874 39.3677 276.153 37.6343 274.871 36.3562L244.419 5.99103C240.545 2.12748 235.397 0 229.917 0C224.44 0 219.289 2.12748 215.417 5.99103L102.512 118.572C99.8421 121.232 99.8421 125.548 102.512 128.211C105.183 130.873 109.511 130.873 112.181 128.211L225.084 15.6299C226.376 14.3412 228.091 13.6329 229.917 13.6329C231.744 13.6329 233.461 14.3412 234.75 15.6299L260.852 41.6549C257.17 47.1827 255.194 53.669 255.194 60.4561C255.194 69.5598 258.748 78.1177 265.205 84.556C271.662 90.9917 280.244 94.5384 289.374 94.5384C296.18 94.5384 302.682 92.568 308.229 88.8962L334.328 114.921C336.993 117.579 336.993 121.903 334.328 124.56L291.083 167.682H261.114L283.574 145.286C286.242 142.624 286.242 138.308 283.574 135.648L213.968 66.2395C211.297 63.5768 206.969 63.5768 204.298 66.2395L102.566 167.682H20.5078C9.19914 167.682 0 176.855 0 188.132V231.075C0 234.838 3.06015 237.892 6.83594 237.892C18.1446 237.892 27.3438 247.065 27.3438 258.341C27.3438 269.615 18.1446 278.79 6.83594 278.79C3.06015 278.79 0 281.842 0 285.607V328.551C0 339.824 9.19914 349 20.5078 349H329.492C340.801 349 350 339.824 350 328.551V285.607C350 281.842 346.94 278.79 343.164 278.79C331.855 278.79 322.656 269.615 322.656 258.341C322.656 247.065 331.855 237.892 343.164 237.892C346.94 237.892 350 234.838 350 231.075V188.132C350 176.855 340.801 167.682 329.492 167.682V167.682ZM209.132 80.6978L269.072 140.467L241.779 167.682H214.71L234.75 147.696C237.421 145.036 237.421 140.72 234.75 138.057C232.083 135.395 227.754 135.395 225.084 138.057L195.374 167.68H121.901L209.132 80.6978ZM336.328 224.943C320.747 228.109 308.984 241.88 308.984 258.341C308.984 274.799 320.747 288.57 336.328 291.739V328.551C336.328 332.308 333.263 335.367 329.492 335.367H20.5078C16.7374 335.367 13.6719 332.308 13.6719 328.551V291.739C29.253 288.57 41.0156 274.799 41.0156 258.341C41.0156 241.88 29.253 228.112 13.6719 224.943V188.132C13.6719 184.372 16.7374 181.315 20.5078 181.315H329.492C333.263 181.315 336.328 184.372 336.328 188.132V224.943Z" fill="white"/>
<path d="M145.995 246.801C147.266 245.531 147.998 243.773 147.998 241.981C147.998 240.187 147.266 238.429 145.995 237.162C144.724 235.895 142.959 235.165 141.162 235.165C139.365 235.165 137.6 235.895 136.329 237.162C135.058 238.429 134.326 240.187 134.326 241.981C134.326 243.773 135.058 245.531 136.329 246.801C137.6 248.068 139.365 248.798 141.162 248.798C142.959 248.798 144.724 248.068 145.995 246.801Z" fill="white"/>
<path d="M213.671 246.801C214.942 245.531 215.674 243.773 215.674 241.981C215.674 240.187 214.942 238.429 213.671 237.162C212.4 235.895 210.635 235.165 208.838 235.165C207.041 235.165 205.276 235.895 204.005 237.162C202.734 238.429 202.002 240.187 202.002 241.981C202.002 243.773 202.734 245.531 204.005 246.801C205.276 248.068 207.041 248.798 208.838 248.798C210.635 248.798 212.4 248.068 213.671 246.801Z" fill="white"/>
<path d="M179.833 246.801C181.104 245.531 181.836 243.773 181.836 241.981C181.836 240.187 181.104 238.429 179.833 237.162C178.562 235.895 176.797 235.165 175 235.165C173.203 235.165 171.438 235.895 170.167 237.162C168.896 238.429 168.164 240.187 168.164 241.981C168.164 243.773 168.896 245.531 170.167 246.801C171.438 248.068 173.203 248.798 175 248.798C176.797 248.798 178.562 248.068 179.833 246.801Z" fill="white"/>
<path d="M247.509 246.801C248.78 245.531 249.512 243.773 249.512 241.981C249.512 240.187 248.78 238.429 247.509 237.162C246.238 235.895 244.473 235.165 242.676 235.165C240.879 235.165 239.114 235.895 237.843 237.162C236.572 238.429 235.84 240.187 235.84 241.981C235.84 243.773 236.572 245.531 237.843 246.801C239.114 248.068 240.879 248.798 242.676 248.798C244.473 248.798 246.238 248.068 247.509 246.801Z" fill="white"/>
<path d="M107.324 281.517H242.676C246.452 281.517 249.512 278.463 249.512 274.701C249.512 270.936 246.452 267.884 242.676 267.884H107.324C103.548 267.884 100.488 270.936 100.488 274.701C100.488 278.463 103.548 281.517 107.324 281.517Z" fill="white"/>
<path d="M132.153 300.603C130.355 300.603 128.59 301.333 127.319 302.6C126.048 303.867 125.317 305.625 125.317 307.419C125.317 309.211 126.048 310.969 127.319 312.239C128.59 313.506 130.355 314.236 132.153 314.236C133.958 314.236 135.715 313.506 136.986 312.239C138.265 310.969 138.989 309.211 138.989 307.419C138.989 305.625 138.265 303.867 136.986 302.6C135.715 301.333 133.958 300.603 132.153 300.603Z" fill="white"/>
<path d="M278.906 202.446H71.0938C67.318 202.446 64.2578 205.498 64.2578 209.263V307.42C64.2578 311.182 67.318 314.236 71.0938 314.236H99.5697C103.345 314.236 106.406 311.182 106.406 307.42C106.406 303.655 103.345 300.603 99.5697 300.603H77.9297V216.079H272.07V300.603H161.093C157.317 300.603 154.257 303.655 154.257 307.42C154.257 311.182 157.317 314.236 161.093 314.236H278.906C282.682 314.236 285.742 311.182 285.742 307.42V209.263C285.742 205.498 282.682 202.446 278.906 202.446Z" fill="white"/>
</svg>
