<svg width="1048" height="1148" viewBox="0 0 1048 1148" fill="none" xmlns="http://www.w3.org/2000/svg">
<path d="M498.297 0.277657C484.325 1.25469 458.462 4.07723 445.779 6.13986C275.244 34.0396 127.105 153.889 51.7959 324.762C-3.59554 450.582 -14.9909 595.617 19.6907 730.231C40.2024 809.587 76.4694 883.842 125.519 946.806C146.031 973.078 179.127 1007.6 205.188 1029.53C308.44 1116.92 442.41 1159.15 573.209 1145.47C684.685 1133.75 787.64 1084.79 871.372 1003.69C885.244 990.339 913.485 958.748 924.286 944.635C961.445 895.784 989.784 844.218 1010.69 786.899C1060.44 650.765 1060.44 497.045 1010.69 360.912C989.784 303.592 961.445 252.027 924.286 203.175C913.485 189.062 885.244 157.472 871.372 144.119C787.739 63.025 685.775 14.6075 573.506 2.34028C558.742 0.711894 511.377 -0.590818 498.297 0.277657ZM617.205 152.152C649.211 159.426 676.659 177.338 693.802 201.764C705.197 218.048 712.034 233.897 717.583 256.912C720.457 268.853 720.556 270.482 721.052 296.753L721.448 324.219H790.712H859.976V395.868V467.517H792.595H725.213L725.015 519.843C724.52 607.776 725.114 617.655 731.852 646.966C741.365 688.87 758.904 719.917 784.668 740.978C802.405 755.416 827.97 765.729 852.445 768.118L859.481 768.769L859.778 837.921L859.976 907.074L854.328 908.376C845.905 910.439 821.925 910.113 809.936 907.834C778.623 901.754 743.644 884.602 710.845 859.091C685.379 839.441 661.994 816.427 648.716 798.189C624.934 765.621 607.098 727.734 598.972 692.452C592.532 664.661 593.027 687.458 592.73 405.204L592.432 149.113L601.053 149.764C605.909 150.09 613.142 151.175 617.205 152.152ZM473.425 327.367C480.262 328.67 490.27 330.949 495.72 332.469C506.521 335.4 528.717 343.217 530.798 344.736C531.789 345.388 526.736 360.369 508.107 410.632C494.928 446.348 484.028 475.768 483.829 475.985C483.73 476.202 478.974 474.573 473.425 472.511C457.273 466.54 447.265 465.02 426.952 465.672C412.385 466.106 408.025 466.649 399.405 469.145C366.408 478.482 340.644 497.154 321.916 525.053C313.097 538.189 303.782 559.575 299.918 575.534C296.846 588.235 296.747 589.103 296.747 611.901C296.747 631.984 297.044 636.761 298.927 645.989C302.098 661.404 308.341 681.162 314.583 695.275C319.637 706.673 320.727 708.41 330.636 719.158C367.993 759.867 413.971 776.26 460.642 765.512C471.84 763.016 485.514 757.696 491.955 753.462C511.178 740.869 538.924 713.295 550.517 695.166C553.886 689.955 556.859 686.047 557.057 686.481C557.255 687.024 559.634 693.212 562.21 700.377C575.389 736.853 595.108 770.18 618.097 795.149L629.988 807.959L626.817 812.301C610.863 834.23 590.153 853.771 565.084 870.489C534.861 890.464 503.053 902.297 462.624 908.376C448.157 910.548 407.332 910.331 393.756 907.942C320.529 895.132 263.552 858.548 221.24 797.32C198.45 764.427 180.613 724.043 172.884 687.892C167.533 663.032 165.948 647.183 165.948 617.329C165.948 582.59 168.623 560.335 176.749 530.047C189.73 481.087 218.168 428.761 245.716 402.924C290.603 361.02 344.707 334.206 401.485 325.847C417.142 323.567 457.571 324.436 473.425 327.367Z" fill="#59045A"/>
</svg>
