<svg id="Capa_1"  height="87" viewBox="0 0 77 87" width="77" xmlns="http://www.w3.org/2000/svg"><g><path d="m512.126 257.077h-93.483l-12.31-11.046h-90.155l-13.374 11.088-47.861 127.584 47.861 127.36h209.196v-254.986z" fill="#fbca14"/><path d="m207.241 257.12h-24.154" fill="#00a98f"/><g><path d="m207.241.063-55.805 135.175 55.805 121.882h119.493l91.734 91.733v-91.733-257.057z" fill="#008475"/><path d="m207.241 257.12v-257.057h-207.241v257.057h91.417l13.964 10.816h92.11l9.75-10.817" fill="#00a98f"/><g><path d="m305.845 81.204-98.604 94.52-12.077-33.788 12.077-10.914.096.095 76.471-72.993z" fill="#e2e8ed"/><g><path d="m207.241 131.022v44.702l-51.328-50.903 22.569-22.569z" fill="#f2f3f4"/></g></g></g><path d="m302.803 257.12v254.943h-211.386v-346.72l91.67 91.777z" fill="#fed843"/><g><path d="m318.757 368.753v31.907h-15.954l-4.593-15.954 4.593-15.953z" fill="#e2e8ed"/><g><g><path d="m223.035 368.751h31.907v31.907h-31.907z" fill="#f2f3f4"/></g><g><path d="m286.85 368.754h15.954v31.907h-15.954z" fill="#f2f3f4"/></g><g><path d="m350.665 368.754h31.907v31.907h-31.907z" fill="#e2e8ed"/></g></g></g></g></svg>
