<svg width="77" height="87" viewBox="0 0 77 87" fill="none" xmlns="http://www.w3.org/2000/svg">
<path d="M50.5248 49.474C50.5248 55.9011 45.9882 60.1134 39.2219 60.1134C33.2704 60.1134 27.2837 57.0503 27.3157 51.7795C27.3222 50.1881 28.3681 48.7309 29.7637 48.7309C33.2704 48.7309 33.2383 54.6396 38.8176 54.6396C42.735 54.6396 44.0729 52.2145 44.0729 50.5289C44.0729 44.4244 27.1489 48.1654 27.1489 36.6922C27.1489 30.4826 31.6438 26.1979 38.7117 26.6691C45.4525 27.1186 49.4019 30.4826 49.7837 33.6219C49.973 35.6736 48.7699 37.2722 46.678 37.2722C43.6301 37.2722 43.3189 32.6613 38.0669 32.6613C35.6991 32.6613 33.7003 33.7778 33.7003 36.2029C33.7003 41.267 50.5248 38.3271 50.5248 49.474V49.474ZM77 43.5C77 67.5229 59.7616 87 38.5 87C17.2384 87 0 67.5229 0 43.5C0 19.4771 17.2384 0 38.5 0C59.7616 0 77 19.4771 77 43.5ZM59.0622 47.6579C61.6032 31.2366 48.9271 17.1825 34.634 20.213C23.7385 12.6839 11.2356 27.0353 17.9185 39.3059C15.3166 55.6873 27.9895 69.9262 42.4013 66.816C53.3129 74.2907 65.7805 59.9213 59.0622 47.6579V47.6579Z" fill="#3FADC6"/>
</svg>
