<svg width="77" height="87" viewBox="0 0 77 87" fill="none" xmlns="http://www.w3.org/2000/svg">
<path d="M68.4113 53.7295C67.7696 53.7295 67.2494 54.3172 67.2494 55.0423V73.4945C67.2494 78.1131 63.9122 81.8704 59.8103 81.8704H50.0701C49.4284 81.8704 48.9082 82.4582 48.9082 83.1833C48.9082 83.9083 49.4284 84.4961 50.0701 84.4961H59.8103C65.1937 84.4961 69.5734 79.5607 69.5734 73.4943V55.0425C69.5734 54.3173 69.053 53.7295 68.4113 53.7295V53.7295Z" fill="#D9DDFF"/>
<path d="M46.9361 87H53.1059C54.9485 87 56.4422 85.3124 56.4422 83.2305C56.4422 81.1486 54.9485 79.4609 53.1059 79.4609H46.9361C45.0935 79.4609 43.5999 81.1486 43.5999 83.2305C43.5999 85.3124 45.0935 87 46.9361 87Z" fill="#7776D0"/>
<path d="M73.6782 64.32H68.5164V39.7619C68.5164 21.0554 55.0562 5.83648 38.5116 5.83648C21.967 5.83648 8.50673 21.0554 8.50673 39.7619V64.32H3.34473V39.7619C3.34473 17.8372 19.1206 0 38.5115 0C57.9025 0 73.6782 17.8372 73.6782 39.7619V64.32Z" fill="#D9DDFF"/>
<path d="M11.8168 39.1113H6.56951C2.94134 39.1113 0 42.4347 0 46.534V59.2204C0 63.3198 2.94134 66.6431 6.56951 66.6431H11.8168V39.1113Z" fill="#7776D0"/>
<path d="M11.8169 35.2354C13.5998 35.2354 15.045 36.8683 15.045 38.8827V66.421C15.045 68.4354 13.5998 70.0683 11.8169 70.0683C10.034 70.0683 8.58875 68.4354 8.58875 66.421V38.8827C8.58875 36.8685 10.034 35.2354 11.8169 35.2354Z" fill="#E8F3FF"/>
<path d="M65.1832 66.1919H70.4305C74.0587 66.1919 77 62.8686 77 58.7692V46.0829C77 41.9835 74.0587 38.6602 70.4305 38.6602H65.1832V66.1919Z" fill="#7776D0"/>
<path d="M65.1832 70.0683C63.4003 70.0683 61.9551 68.4354 61.9551 66.421V38.8827C61.9551 36.8683 63.4003 35.2354 65.1832 35.2354C66.9661 35.2354 68.4113 36.8683 68.4113 38.8827V66.421C68.4113 68.4354 66.9661 70.0683 65.1832 70.0683Z" fill="#E8F3FF"/>
<path d="M38.5 34.6152C47.4947 34.6152 54.7864 42.8524 54.7864 53.0134C54.7864 58.371 52.7585 63.193 49.5233 66.5556V71.4066L45.6399 69.5529C43.4839 70.7428 41.0613 71.4115 38.5001 71.4115C29.5054 71.4115 22.2137 63.1744 22.2137 53.0134C22.2136 42.8524 29.5053 34.6152 38.5 34.6152V34.6152Z" fill="#FF8CCC"/>
<path d="M38.5 34.6152C37.4405 34.6152 36.4046 34.7296 35.4014 34.9479C42.9141 36.5826 48.5891 44.0493 48.5891 53.0135C48.5891 61.7926 42.7638 69.3947 35.3566 71.0693C36.3737 71.2939 37.4246 71.4118 38.5 71.4118C41.0612 71.4118 43.4838 70.7432 45.6398 69.5532L49.5232 71.4069V66.556C52.7584 63.1936 54.7863 58.3715 54.7863 53.0137C54.7864 42.8524 47.4947 34.6152 38.5 34.6152V34.6152Z" fill="#FF78C2"/>
<path d="M35.392 46.9626H41.608C42.2497 46.9626 42.7699 46.3748 42.7699 45.6497C42.7699 44.9247 42.2497 44.3369 41.608 44.3369H35.392C34.7503 44.3369 34.2301 44.9247 34.2301 45.6497C34.2301 46.3748 34.7503 46.9626 35.392 46.9626Z" fill="white"/>
<path d="M41.608 59.0645H35.392C34.7503 59.0645 34.2301 59.6522 34.2301 60.3773C34.2301 61.1023 34.7503 61.6901 35.392 61.6901H41.608C42.2497 61.6901 42.7699 61.1023 42.7699 60.3773C42.7699 59.6522 42.2497 59.0645 41.608 59.0645Z" fill="white"/>
<path d="M44.9334 51.7002H32.0666C31.4249 51.7002 30.9047 52.288 30.9047 53.013C30.9047 53.7381 31.4249 54.3258 32.0666 54.3258H44.9334C45.5751 54.3258 46.0953 53.7381 46.0953 53.013C46.0955 52.288 45.5751 51.7002 44.9334 51.7002Z" fill="white"/>
<path d="M55.1618 0C47.5091 0 41.3053 7.00809 41.3053 15.6532C41.3053 20.2115 43.0306 24.3141 45.7832 27.1749V31.3022L49.0873 29.7251C50.9216 30.7375 52.9828 31.3064 55.1618 31.3064C62.8146 31.3064 69.0184 24.2982 69.0184 15.6532C69.0184 7.00809 62.8146 0 55.1618 0V0Z" fill="#FFD54D"/>
<path d="M55.1618 0C54.0965 0 53.0594 0.135938 52.0631 0.39286C58.224 1.98265 62.821 8.21148 62.821 15.653C62.821 23.0944 58.2245 29.3229 52.0639 30.913C53.0599 31.1701 54.0967 31.3062 55.1618 31.3062C62.8144 31.3062 69.0183 24.298 69.0183 15.653C69.0183 7.00809 62.8145 0 55.1618 0Z" fill="#FFC919"/>
<path d="M60.1182 10.9441C59.9842 8.02534 57.8518 5.69282 55.2636 5.63386C52.7462 5.57948 50.5932 7.65151 50.2464 10.4598C50.2147 10.7167 50.1986 10.9794 50.1986 11.2406C50.1986 11.9657 50.7188 12.5534 51.3605 12.5534C52.0022 12.5534 52.5224 11.9657 52.5224 11.2406C52.5224 11.1006 52.531 10.9601 52.548 10.8229C52.7322 9.33085 53.8829 8.22619 55.2167 8.25898C56.5925 8.29042 57.7261 9.52949 57.7972 11.08C57.8353 11.9079 57.579 12.6936 57.0755 13.2927C56.5717 13.8924 55.8919 14.2226 55.1617 14.2226C54.5199 14.2226 53.9997 14.8103 53.9997 15.5354V20.0266C53.9997 20.7516 54.5199 21.3394 55.1617 21.3394C55.8034 21.3394 56.3236 20.7516 56.3236 20.0266V16.691C57.2464 16.4382 58.0989 15.8886 58.7608 15.1009C59.7077 13.9743 60.1897 12.498 60.1182 10.9441V10.9441Z" fill="white"/>
<path d="M55.1618 23.2207C53.6664 23.2207 53.6639 25.8465 55.1618 25.8465C56.6571 25.8465 56.6597 23.2207 55.1618 23.2207Z" fill="white"/>
</svg>
