<svg width="77" height="87" viewBox="0 0 77 87" fill="none" xmlns="http://www.w3.org/2000/svg">
<path d="M0.572388 13.7048C0.572388 6.06868 6.09984 -0.108825 12.8807 0.00145389C19.449 0.108165 24.7898 6.19443 24.8313 13.6163C24.8546 17.7727 23.2397 21.503 20.6737 24.0333C20.4029 24.3003 20.442 24.7876 20.7514 24.9944L23.0368 26.5224C23.4063 26.7694 23.2513 27.4093 22.8219 27.4093L12.4723 27.4065C5.87937 27.268 0.572388 21.187 0.572388 13.7048V13.7048Z" fill="#7ACAA6"/>
<path d="M23.0368 26.5224L20.7512 24.9945C20.4435 24.7889 20.4008 24.3022 20.6701 24.0368C23.2654 21.4797 24.8887 17.695 24.8299 13.4833C24.7281 6.19824 19.5096 0.218184 13.0637 0.00595175C12.1496 -0.0241244 11.2575 0.0603267 10.3977 0.247071C15.9692 1.45386 20.2154 7.00265 20.2524 13.6162C20.2702 16.819 19.3154 19.7689 17.7023 22.1116C16.7282 23.5262 17.0448 25.5775 18.4101 26.4903L18.4579 26.5223C18.8233 26.7666 18.6751 27.3943 18.2565 27.4079L22.8218 27.4091C23.2511 27.4094 23.4063 26.7693 23.0368 26.5224V26.5224Z" fill="#57BE92"/>
<path d="M59.6739 49.7455H32.1575C25.2849 49.7455 21.524 40.6961 25.9134 34.721L26.1575 34.3886C28.0912 31.7564 29.1497 28.4431 29.1497 25.0222V19.0268C29.1498 8.51852 36.6892 0 45.9897 0C55.2901 0 62.8295 8.51852 62.8295 19.0268V25.2246C62.8295 28.6813 63.9102 32.0269 65.8809 34.671C70.3251 40.6339 66.5735 49.7455 59.6739 49.7455V49.7455Z" fill="#C59191"/>
<path d="M74.1381 65.1536V85.7073H17.6935V65.3082C17.6935 60.6897 20.1433 56.5215 23.9091 54.7305L33.0213 50.2548L36.0893 48.7476C38.4173 47.604 39.9227 45.0093 39.9227 42.141V40.8105H51.9073V42.0731C51.9073 44.9532 53.4278 47.5581 55.7724 48.6932L68.0969 54.6626C71.7694 56.5011 74.1381 60.6132 74.1381 65.1536Z" fill="white"/>
<path d="M33.0205 55.155C36.1304 56.205 40.7079 57.3247 46.2875 57.2145C51.5228 57.1111 55.8203 55.9609 58.8107 54.8818L60.2966 50.884L55.7719 48.6929C53.4279 47.5576 51.9081 44.9536 51.9081 42.072V40.8105H39.9234V42.1407C39.9234 45.0086 38.4177 47.6032 36.0901 48.7468L32.4254 50.5471L33.0205 55.155Z" fill="#FFCEBF"/>
<path d="M68.0961 54.661L58.8122 50.165L58.8105 50.1652V85.7062H74.1381V65.153C74.1381 60.6132 71.7696 56.5002 68.0961 54.661V54.661Z" fill="#8795DE"/>
<path d="M33.0213 50.2539V85.7064H17.6935V65.3073C17.6935 60.6888 20.1433 56.5206 23.9091 54.7296L33.0213 50.2539Z" fill="#8795DE"/>
<path d="M50.0699 48.2428C51.4487 48.2428 52.7625 47.9299 53.9601 47.3655C52.6755 46.0256 51.9079 44.1191 51.9079 42.072V40.8105H39.9232V42.1405C39.9232 43.1765 39.7258 44.1765 39.365 45.0856C41.1798 47.0402 43.6349 48.2426 46.34 48.2426H50.0699V48.2428Z" fill="#FFB09E"/>
<path d="M57.894 20.4406V31.6427C57.894 37.9536 53.366 43.0694 47.7807 43.0694H44.0508C38.4653 43.0694 33.9375 37.9534 33.9375 31.6427V20.4406C33.9375 16.3351 36.8831 13.0068 40.5168 13.0068H51.3148C54.9484 13.007 57.894 16.3351 57.894 20.4406Z" fill="#FFCEBF"/>
<path d="M57.8939 26.2686C57.8894 26.284 57.8838 26.299 57.8797 26.3148C57.5141 27.7413 56.5547 30.4359 54.2359 32.4561C53.1563 33.3969 51.9247 34.0766 50.5757 34.4766C49.9642 34.6579 49.5985 35.365 49.759 36.0559C49.894 36.6368 50.3577 37.0214 50.8655 37.0214C50.9616 37.0214 51.0594 37.0076 51.1568 36.9787C52.8039 36.4904 54.3102 35.6579 55.6341 34.5047C56.5483 33.7081 57.2883 32.8282 57.8873 31.9436C57.8895 31.8434 57.894 31.7436 57.894 31.6427V26.2686H57.8939Z" fill="#7A6D79"/>
<path d="M49.3204 38.0527H46.6379C45.4169 38.0527 44.427 36.9343 44.427 35.5547C44.427 34.1751 45.4169 33.0566 46.6379 33.0566H49.3204C50.5414 33.0566 51.5313 34.1751 51.5313 35.5547C51.5312 36.9344 50.5414 38.0527 49.3204 38.0527Z" fill="#685E68"/>
<path d="M48.3056 10.0426C48.5625 6.38245 51.6639 3.95341 54.6321 2.69531C59.5422 6.01949 62.8295 12.0893 62.8295 19.0274V20.3354C62.558 20.3998 62.2879 20.4562 62.0208 20.5013C60.3856 20.7772 58.9931 20.6578 58.0418 20.5013C51.9114 19.5786 47.9954 14.4631 48.3056 10.0426V10.0426Z" fill="#B98080"/>
<path d="M45.9896 0C49.7927 0 53.301 1.42496 56.1201 3.82749C54.7137 6.59229 51.4846 12.0587 45.4294 16.1055C40.9342 19.1099 36.6956 20.1194 34.0854 20.5006H29.1499V19.0267C29.1498 8.51852 36.6891 0 45.9896 0V0Z" fill="#C59191"/>
<path d="M64.814 85.707H28.1707L26.1496 64.1651C26.0063 62.6372 27.0664 61.3057 28.4262 61.3057H64.5586C65.9184 61.3057 66.9785 62.6372 66.8352 64.1651L64.814 85.707Z" fill="#EFEDEF"/>
<path d="M64.5585 61.3057H59.9797C61.3396 61.3057 62.3997 62.6372 62.2563 64.1651L60.2353 85.7071H64.814L66.8351 64.1651C66.9786 62.6372 65.9185 61.3057 64.5585 61.3057Z" fill="#E5E1E5"/>
<path d="M75.8721 87H1.12793C0.504861 87 0 86.4294 0 85.7256C0 85.0218 0.504861 84.4512 1.12793 84.4512H75.8721C76.4951 84.4512 77 85.0218 77 85.7256C77 86.4294 76.4951 87 75.8721 87Z" fill="#C9BFC8"/>
<path d="M46.4924 77.1275C48.2625 77.1275 49.6975 75.5062 49.6975 73.5061C49.6975 71.5061 48.2625 69.8848 46.4924 69.8848C44.7222 69.8848 43.2872 71.5061 43.2872 73.5061C43.2872 75.5062 44.7222 77.1275 46.4924 77.1275Z" fill="#C9BFC8"/>
<path d="M8.12326 14.9977C8.75542 14.9977 9.26788 14.4187 9.26788 13.7044C9.26788 12.9902 8.75542 12.4111 8.12326 12.4111C7.4911 12.4111 6.97864 12.9902 6.97864 13.7044C6.97864 14.4187 7.4911 14.9977 8.12326 14.9977Z" fill="white"/>
<path d="M12.702 14.9977C13.3342 14.9977 13.8466 14.4187 13.8466 13.7044C13.8466 12.9902 13.3342 12.4111 12.702 12.4111C12.0698 12.4111 11.5574 12.9902 11.5574 13.7044C11.5574 14.4187 12.0698 14.9977 12.702 14.9977Z" fill="white"/>
<path d="M17.2809 14.9977C17.913 14.9977 18.4255 14.4187 18.4255 13.7044C18.4255 12.9902 17.913 12.4111 17.2809 12.4111C16.6487 12.4111 16.1362 12.9902 16.1362 13.7044C16.1362 14.4187 16.6487 14.9977 17.2809 14.9977Z" fill="white"/>
</svg>
