<svg width="158" height="171" viewBox="0 0 158 171" fill="none" xmlns="http://www.w3.org/2000/svg">
<path d="M1.17456 26.937C1.17456 11.9281 12.5166 -0.213898 26.4305 0.00285764C39.9083 0.2126 50.8674 12.1753 50.9526 26.763C51.0004 34.9326 47.6867 42.2646 42.4215 47.2379C41.8657 47.7626 41.946 48.7205 42.5807 49.1269L47.2704 52.1301C48.0287 52.6158 47.7105 53.8735 46.8295 53.8735L25.5927 53.8679C12.0642 53.5957 1.17456 41.6434 1.17456 26.937V26.937Z" fill="#7ACAA6"/>
<path d="M47.2704 52.1303L42.5804 49.1271C41.949 48.723 41.8614 47.7665 42.4141 47.2448C47.7395 42.2186 51.0704 34.7798 50.9498 26.5017C50.7409 12.1828 40.0326 0.428845 26.806 0.0116983C24.9304 -0.047417 23.0998 0.118573 21.3356 0.485622C32.768 2.85758 41.4809 13.7638 41.5568 26.7628C41.5935 33.0581 39.6343 38.8561 36.3243 43.4607C34.3255 46.2412 34.9751 50.273 37.7765 52.0672L37.8747 52.13C38.6245 52.6102 38.3203 53.844 37.4614 53.8707L46.8291 53.873C47.7102 53.8737 48.0286 52.6156 47.2704 52.1303V52.1303Z" fill="#57BE92"/>
<path d="M122.448 97.7756H65.9854C51.8832 97.7756 44.1659 79.9889 53.1729 68.2447L53.6737 67.5914C57.6416 62.4177 59.8135 55.9053 59.8135 49.1815V37.3976C59.8138 16.7433 75.2842 0 94.3683 0C113.452 0 128.923 16.7433 128.923 37.3976V49.5793C128.923 56.3736 131.14 62.9494 135.184 68.1465C144.303 79.8667 136.605 97.7756 122.448 97.7756V97.7756Z" fill="#C59191"/>
<path d="M152.127 128.059V168.458H36.306V128.363C36.306 119.286 41.333 111.093 49.0602 107.573L67.7579 98.7757L74.0532 95.8133C78.8302 93.5656 81.9193 88.4656 81.9193 82.828V80.2129H106.511V82.6944C106.511 88.3554 109.631 93.4754 114.442 95.7064L139.731 107.439C147.267 111.053 152.127 119.135 152.127 128.059Z" fill="white"/>
<path d="M67.7564 108.408C74.1378 110.472 83.5305 112.673 94.9796 112.456C105.722 112.253 114.54 109.992 120.677 107.871L123.725 100.013L114.441 95.7067C109.631 93.4754 106.513 88.3571 106.513 82.6934V80.2139H81.9208V82.8283C81.9208 88.4653 78.8312 93.5649 74.0551 95.8126L66.5353 99.3512L67.7564 108.408Z" fill="#FFCEBF"/>
<path d="M139.73 107.437L120.68 98.6006L120.677 98.6009V168.457H152.128V128.06C152.128 119.137 147.268 111.053 139.73 107.437V107.437Z" fill="#8795DE"/>
<path d="M67.7579 98.7754V168.458H36.306V128.363C36.306 119.285 41.333 111.093 49.0602 107.573L67.7579 98.7754Z" fill="#8795DE"/>
<path d="M102.741 94.822C105.57 94.822 108.266 94.2071 110.723 93.0976C108.087 90.4642 106.512 86.7169 106.512 82.6934V80.2139H81.9205V82.828C81.9205 84.8643 81.5153 86.8298 80.775 88.6166C84.4988 92.4584 89.5366 94.8217 95.0873 94.8217H102.741V94.822Z" fill="#FFB09E"/>
<path d="M118.795 40.1756V62.1935C118.795 74.5977 109.504 84.653 98.0434 84.653H90.3899C78.9288 84.653 69.6379 74.5974 69.6379 62.1935V40.1756C69.6379 32.1062 75.6821 25.5645 83.1383 25.5645H105.295C112.751 25.5648 118.795 32.1062 118.795 40.1756Z" fill="#FFCEBF"/>
<path d="M118.795 51.6318C118.786 51.6622 118.775 51.6916 118.766 51.7227C118.016 54.5265 116.047 59.8228 111.289 63.7935C109.074 65.6428 106.547 66.9787 103.779 67.7649C102.524 68.1213 101.774 69.511 102.103 70.869C102.38 72.0109 103.331 72.7667 104.374 72.7667C104.571 72.7667 104.771 72.7396 104.971 72.6829C108.351 71.723 111.442 70.0868 114.158 67.8201C116.034 66.2543 117.553 64.525 118.782 62.7862C118.786 62.5892 118.796 62.3931 118.796 62.1948V51.6318H118.795Z" fill="#7A6D79"/>
<path d="M101.203 74.7925H95.6986C93.1931 74.7925 91.162 72.5942 91.162 69.8826C91.162 67.1709 93.1931 64.9727 95.6986 64.9727H101.203C103.708 64.9727 105.74 67.1709 105.74 69.8826C105.739 72.5945 103.708 74.7925 101.203 74.7925Z" fill="#685E68"/>
<path d="M99.1206 19.738C99.6477 12.544 106.011 7.7697 112.102 5.29688C122.177 11.8306 128.923 23.7609 128.923 37.3978V39.9688C128.366 40.0954 127.811 40.2063 127.263 40.2948C123.908 40.8372 121.051 40.6024 119.099 40.2948C106.519 38.4812 98.484 28.4266 99.1206 19.738V19.738Z" fill="#B98080"/>
<path d="M94.3683 0C102.172 0 109.371 2.80079 115.155 7.523C112.27 12.9573 105.644 23.7015 93.2187 31.6557C83.9949 37.5609 75.2975 39.5451 69.9415 40.2942H59.8141V37.3972C59.8138 16.7433 75.2842 0 94.3683 0V0Z" fill="#C59191"/>
<path d="M132.995 168.458H57.8048L53.6577 126.117C53.3636 123.114 55.5388 120.497 58.3291 120.497H132.471C135.261 120.497 137.437 123.114 137.142 126.117L132.995 168.458Z" fill="#EFEDEF"/>
<path d="M132.471 120.497H123.075C125.865 120.497 128.041 123.114 127.747 126.117L123.599 168.459H132.995L137.142 126.117C137.437 123.114 135.261 120.497 132.471 120.497Z" fill="#E5E1E5"/>
<path d="M155.686 171H2.31445C1.03595 171 0 169.878 0 168.495C0 167.112 1.03595 165.99 2.31445 165.99H155.686C156.964 165.99 158 167.112 158 168.495C158 169.878 156.964 171 155.686 171Z" fill="#C9BFC8"/>
<path d="M95.3999 151.595C99.0321 151.595 101.977 148.408 101.977 144.477C101.977 140.546 99.0321 137.359 95.3999 137.359C91.7676 137.359 88.8231 140.546 88.8231 144.477C88.8231 148.408 91.7676 151.595 95.3999 151.595Z" fill="#C9BFC8"/>
<path d="M16.6684 29.4784C17.9656 29.4784 19.0171 28.3404 19.0171 26.9365C19.0171 25.5326 17.9656 24.3945 16.6684 24.3945C15.3713 24.3945 14.3197 25.5326 14.3197 26.9365C14.3197 28.3404 15.3713 29.4784 16.6684 29.4784Z" fill="white"/>
<path d="M26.0638 29.4784C27.3609 29.4784 28.4125 28.3404 28.4125 26.9365C28.4125 25.5326 27.3609 24.3945 26.0638 24.3945C24.7666 24.3945 23.7151 25.5326 23.7151 26.9365C23.7151 28.3404 24.7666 29.4784 26.0638 29.4784Z" fill="white"/>
<path d="M35.4593 29.4784C36.7565 29.4784 37.808 28.3404 37.808 26.9365C37.808 25.5326 36.7565 24.3945 35.4593 24.3945C34.1621 24.3945 33.1106 25.5326 33.1106 26.9365C33.1106 28.3404 34.1621 29.4784 35.4593 29.4784Z" fill="white"/>
</svg>
