<svg width="158" height="171" viewBox="0 0 158 171" fill="none" xmlns="http://www.w3.org/2000/svg">
<path d="M140.377 105.606C139.06 105.606 137.992 106.762 137.992 108.187V144.455C137.992 153.533 131.145 160.918 122.728 160.918H102.741C101.425 160.918 100.357 162.073 100.357 163.498C100.357 164.923 101.425 166.079 102.741 166.079H122.728C133.774 166.079 142.761 156.378 142.761 144.455V108.187C142.761 106.762 141.693 105.606 140.377 105.606V105.606Z" fill="#D9DDFF"/>
<path d="M96.3106 171H108.971C112.752 171 115.816 167.683 115.816 163.591C115.816 159.499 112.752 156.182 108.971 156.182H96.3106C92.5297 156.182 89.4647 159.499 89.4647 163.591C89.4647 167.683 92.5297 171 96.3106 171Z" fill="#7776D0"/>
<path d="M151.184 126.422H140.592V78.1527C140.592 41.3847 112.972 11.4717 79.0238 11.4717C45.0751 11.4717 17.4553 41.3847 17.4553 78.1527V126.422H6.86316V78.1527C6.86316 35.0593 39.2343 0 79.0235 0C118.813 0 151.184 35.0593 151.184 78.1527V126.422Z" fill="#D9DDFF"/>
<path d="M24.2474 76.873H13.4803C6.03548 76.873 0 83.4051 0 91.4625V116.398C0 124.455 6.03548 130.987 13.4803 130.987H24.2474V76.873Z" fill="#7776D0"/>
<path d="M24.2475 69.2549C27.9059 69.2549 30.8715 72.4645 30.8715 76.4239V130.551C30.8715 134.51 27.9059 137.72 24.2475 137.72C20.5891 137.72 17.6235 134.51 17.6235 130.551V76.4239C17.6235 72.4648 20.5891 69.2549 24.2475 69.2549Z" fill="#E8F3FF"/>
<path d="M133.753 130.101H144.52C151.965 130.101 158 123.569 158 115.512V90.5767C158 82.5194 151.965 75.9873 144.52 75.9873H133.753V130.101Z" fill="#7776D0"/>
<path d="M133.753 137.72C130.094 137.72 127.129 134.51 127.129 130.551V76.4239C127.129 72.4645 130.094 69.2549 133.753 69.2549C137.411 69.2549 140.376 72.4645 140.376 76.4239V130.551C140.376 134.51 137.411 137.72 133.753 137.72Z" fill="#E8F3FF"/>
<path d="M79 68.0371C97.4566 68.0371 112.419 84.2273 112.419 104.199C112.419 114.729 108.258 124.207 101.619 130.816V140.351L93.6508 136.708C89.2268 139.047 84.2556 140.361 79.0003 140.361C60.5436 140.361 45.5814 124.171 45.5814 104.199C45.5811 84.2273 60.5433 68.0371 79 68.0371V68.0371Z" fill="#FF8CCC"/>
<path d="M79 68.0371C76.826 68.0371 74.7004 68.2619 72.6418 68.6911C88.0576 71.904 99.7023 86.5799 99.7023 104.199C99.7023 121.455 87.749 136.397 72.5498 139.688C74.6368 140.13 76.7933 140.361 79 140.361C84.2554 140.361 89.2265 139.047 93.6505 136.708L101.619 140.352V130.817C108.257 124.208 112.419 114.73 112.419 104.2C112.419 84.2273 97.4567 68.0371 79 68.0371V68.0371Z" fill="#FF78C2"/>
<path d="M72.6226 92.3053H85.3774C86.6942 92.3053 87.7616 91.15 87.7616 89.7249C87.7616 88.2998 86.6942 87.1445 85.3774 87.1445H72.6226C71.3058 87.1445 70.2384 88.2998 70.2384 89.7249C70.2384 91.15 71.3058 92.3053 72.6226 92.3053Z" fill="white"/>
<path d="M85.3774 116.092H72.6226C71.3058 116.092 70.2384 117.247 70.2384 118.672C70.2384 120.097 71.3058 121.253 72.6226 121.253H85.3774C86.6942 121.253 87.7616 120.097 87.7616 118.672C87.7616 117.247 86.6942 116.092 85.3774 116.092Z" fill="white"/>
<path d="M92.201 101.618H65.799C64.4822 101.618 63.4148 102.773 63.4148 104.199C63.4148 105.624 64.4822 106.779 65.799 106.779H92.201C93.5178 106.779 94.5852 105.624 94.5852 104.199C94.5855 102.773 93.5178 101.618 92.201 101.618Z" fill="white"/>
<path d="M113.189 0C97.486 0 84.7562 13.7745 84.7562 30.7666C84.7562 39.7261 88.2964 47.7898 93.9446 53.4128V61.5249L100.724 58.4252C104.488 60.4151 108.718 61.5333 113.189 61.5333C128.892 61.5333 141.622 47.7584 141.622 30.7666C141.622 13.7745 128.892 0 113.189 0V0Z" fill="#FFD54D"/>
<path d="M113.189 0C111.003 0 108.875 0.267188 106.831 0.772172C119.473 3.89693 128.905 16.1398 128.905 30.7663C128.905 45.3925 119.474 57.6347 106.832 60.7601C108.876 61.2654 111.004 61.5329 113.189 61.5329C128.892 61.5329 141.622 47.7581 141.622 30.7663C141.622 13.7745 128.892 0 113.189 0Z" fill="#FFC919"/>
<path d="M123.359 21.5107C123.084 15.7738 118.709 11.1892 113.398 11.0733C108.232 10.9665 103.815 15.0391 103.103 20.5588C103.038 21.0638 103.005 21.5802 103.005 22.0935C103.005 23.5186 104.072 24.6739 105.389 24.6739C106.706 24.6739 107.773 23.5186 107.773 22.0935C107.773 21.8183 107.791 21.5421 107.826 21.2726C108.204 18.3398 110.565 16.1686 113.302 16.2331C116.125 16.2949 118.451 18.7303 118.597 21.7779C118.675 23.4051 118.149 24.9494 117.116 26.127C116.082 27.3057 114.687 27.9546 113.189 27.9546C111.872 27.9546 110.805 29.1098 110.805 30.5349V39.3625C110.805 40.7876 111.872 41.9429 113.189 41.9429C114.506 41.9429 115.573 40.7876 115.573 39.3625V32.8064C117.467 32.3094 119.216 31.2293 120.574 29.681C122.517 27.4666 123.506 24.565 123.359 21.5107V21.5107Z" fill="white"/>
<path d="M113.189 45.6416C110.121 45.6416 110.115 50.8027 113.189 50.8027C116.257 50.8027 116.263 45.6416 113.189 45.6416Z" fill="white"/>
</svg>
