<svg width="512" height="512" viewBox="0 0 512 512" fill="none" xmlns="http://www.w3.org/2000/svg">
<path d="M454.891 316.203C450.624 316.203 447.165 319.662 447.165 323.929V432.521C447.165 459.702 424.975 481.814 397.7 481.814H332.934C328.667 481.814 325.208 485.273 325.208 489.54C325.208 493.807 328.667 497.266 332.934 497.266H397.7C433.496 497.266 462.618 468.221 462.618 432.52V323.93C462.618 319.662 459.158 316.203 454.891 316.203V316.203Z" fill="#D9DDFF"/>
<path d="M312.095 512H353.12C365.372 512 375.304 502.068 375.304 489.816C375.304 477.564 365.372 467.632 353.12 467.632H312.095C299.843 467.632 289.911 477.564 289.911 489.816C289.911 502.068 299.843 512 312.095 512Z" fill="#7776D0"/>
<path d="M489.912 378.527H455.589V234.001C455.589 123.912 366.088 34.348 256.077 34.348C146.066 34.348 56.564 123.912 56.564 234.001V378.527H22.24V234.001C22.24 104.973 127.139 0 256.076 0C385.014 0 489.912 104.973 489.912 234.001V378.527Z" fill="#D9DDFF"/>
<path d="M78.574 230.17H43.683C19.558 230.17 0 249.728 0 273.853V348.513C0 372.638 19.558 392.196 43.683 392.196H78.574V230.17Z" fill="#7776D0"/>
<path d="M78.574 207.36C90.429 207.36 100.039 216.97 100.039 228.825V390.889C100.039 402.744 90.429 412.354 78.574 412.354C66.719 412.354 57.109 402.744 57.109 390.889V228.825C57.109 216.971 66.719 207.36 78.574 207.36Z" fill="#E8F3FF"/>
<path d="M433.426 389.545H468.317C492.442 389.545 512 369.987 512 345.862V271.202C512 247.077 492.442 227.519 468.317 227.519H433.426V389.545Z" fill="#7776D0"/>
<path d="M433.426 412.354C421.571 412.354 411.961 402.744 411.961 390.889V228.825C411.961 216.97 421.571 207.36 433.426 207.36C445.281 207.36 454.891 216.97 454.891 228.825V390.889C454.891 402.744 445.281 412.354 433.426 412.354Z" fill="#E8F3FF"/>
<path d="M256 203.713C315.809 203.713 364.294 252.189 364.294 311.987C364.294 343.517 350.81 371.895 329.298 391.684V420.232L303.476 409.323C289.14 416.326 273.031 420.261 256.001 420.261C196.192 420.261 147.707 371.785 147.707 311.987C147.706 252.189 196.191 203.713 256 203.713V203.713Z" fill="#FF8CCC"/>
<path d="M256 203.713C248.955 203.713 242.067 204.386 235.396 205.671C285.351 215.291 323.086 259.233 323.086 311.988C323.086 363.653 284.351 408.392 235.098 418.247C241.861 419.569 248.849 420.263 256 420.263C273.03 420.263 289.139 416.328 303.475 409.325L329.297 420.234V391.686C350.809 371.898 364.293 343.52 364.293 311.989C364.294 252.189 315.809 203.713 256 203.713V203.713Z" fill="#FF78C2"/>
<path d="M235.334 276.377H276.666C280.933 276.377 284.392 272.918 284.392 268.651C284.392 264.384 280.933 260.925 276.666 260.925H235.334C231.067 260.925 227.608 264.384 227.608 268.651C227.608 272.918 231.067 276.377 235.334 276.377Z" fill="white"/>
<path d="M276.666 347.597H235.334C231.067 347.597 227.608 351.056 227.608 355.323C227.608 359.59 231.067 363.049 235.334 363.049H276.666C280.933 363.049 284.392 359.59 284.392 355.323C284.392 351.056 280.933 347.597 276.666 347.597Z" fill="white"/>
<path d="M298.778 304.261H213.222C208.955 304.261 205.496 307.72 205.496 311.987C205.496 316.254 208.955 319.713 213.222 319.713H298.778C303.045 319.713 306.504 316.254 306.504 311.987C306.505 307.72 303.045 304.261 298.778 304.261Z" fill="white"/>
<path d="M366.79 0C315.904 0 274.653 41.243 274.653 92.12C274.653 118.946 286.125 143.09 304.428 159.926V184.215L326.398 174.934C338.595 180.892 352.301 184.24 366.79 184.24C417.676 184.24 458.927 142.996 458.927 92.12C458.927 41.243 417.676 0 366.79 0V0Z" fill="#FFD54D"/>
<path d="M366.79 0C359.707 0 352.811 0.8 346.186 2.312C387.152 11.668 417.719 48.325 417.719 92.119C417.719 135.912 387.155 172.567 346.191 181.925C352.814 183.438 359.708 184.239 366.79 184.239C417.675 184.239 458.927 142.995 458.927 92.119C458.927 41.243 417.676 0 366.79 0Z" fill="#FFC919"/>
<path d="M399.747 64.4066C398.856 47.2296 384.677 33.5026 367.467 33.1556C350.728 32.8356 336.412 45.0296 334.106 61.5566C333.895 63.0686 333.788 64.6146 333.788 66.1516C333.788 70.4186 337.247 73.8776 341.514 73.8776C345.781 73.8776 349.24 70.4186 349.24 66.1516C349.24 65.3276 349.297 64.5006 349.41 63.6936C350.635 54.9126 358.286 48.4116 367.155 48.6046C376.303 48.7896 383.841 56.0816 384.314 65.2066C384.567 70.0786 382.863 74.7026 379.515 78.2286C376.165 81.7576 371.645 83.7006 366.789 83.7006C362.522 83.7006 359.063 87.1596 359.063 91.4266V117.858C359.063 122.125 362.522 125.584 366.789 125.584C371.056 125.584 374.515 122.125 374.515 117.858V98.2276C380.651 96.7396 386.32 93.5056 390.721 88.8696C397.017 82.2396 400.222 73.5516 399.747 64.4066V64.4066Z" fill="white"/>
<path d="M366.79 136.657C356.847 136.657 356.83 152.11 366.79 152.11C376.733 152.11 376.75 136.657 366.79 136.657Z" fill="white"/>
</svg>
